<svg width="160" height="114" viewBox="0 0 160 114" fill="none" xmlns="http://www.w3.org/2000/svg">
<path d="M138 25H22C17.5817 25 14 28.5817 14 33V98C14 102.418 17.5817 106 22 106H138C142.418 106 146 102.418 146 98V33C146 28.5817 142.418 25 138 25Z" fill="#3155D6"/>
<path d="M14 34L80 74L146 34" stroke="#79C7FF" stroke-width="2"/>
<path d="M121 4H39C36.2386 4 34 6.23858 34 9V59C34 61.7614 36.2386 64 39 64H121C123.761 64 126 61.7614 126 59V9C126 6.23858 123.761 4 121 4Z" fill="#EFFAFF"/>
<path d="M49 24H102H49ZM49 36H89H49ZM49 48H75H49Z" fill="black"/>
<path d="M49 24H102M49 36H89M49 48H75" stroke="#3155D6" stroke-width="3"/>
<path d="M14 37L80 77L146 37V99C146 100.857 145.263 102.637 143.95 103.95C142.637 105.262 140.857 106 139 106H21C19.1435 106 17.363 105.262 16.0503 103.95C14.7375 102.637 14 100.857 14 99V37Z" fill="#3155D6"/>
<path d="M14 104L62 63L14 104ZM146 104L98 63L146 104Z" fill="black"/>
<path d="M14 104L62 63M146 104L98 63" stroke="#79C7FF" stroke-width="2"/>
<path d="M130 44C141.046 44 150 35.0457 150 24C150 12.9543 141.046 4 130 4C118.954 4 110 12.9543 110 24C110 35.0457 118.954 44 130 44Z" fill="#FFD23E"/>
<path d="M122 24L128 30L139 17" stroke="#152228" stroke-width="3" stroke-linecap="round" stroke-linejoin="round"/>
</svg>
