<svg width="181" height="53" viewBox="0 0 181 53" fill="none" xmlns="http://www.w3.org/2000/svg">
<path d="M16.2799 22.6536C16.989 23.063 16.989 24.0865 16.2799 24.4959L6.06421 30.3939C5.35511 30.8033 4.46873 30.2915 4.46873 29.4727L4.46873 17.6767C4.46873 16.8579 5.35511 16.3461 6.06421 16.7555L16.2799 22.6536Z" fill="#F7F7F7"/>
<path d="M19.0411 20.3025C19.0554 21.1212 18.178 21.6483 17.4619 21.2514L7.14485 15.5325C6.42871 15.1356 6.41085 14.1122 7.1127 13.6905L17.2239 7.61511C17.9257 7.19339 18.8209 7.6896 18.8352 8.50828L19.0411 20.3025Z" fill="#F7F7F7"/>
<path d="M22.2153 20.954C21.5079 21.3663 20.6194 20.8582 20.6161 20.0394L20.5678 8.24349C20.5644 7.42469 21.4487 6.90931 22.1595 7.3158L32.3992 13.1719C33.11 13.5784 33.1142 14.6019 32.4067 15.0142L22.2153 20.954Z" fill="#F7F7F7"/>
<path d="M22.7485 39.7512C22.0411 40.1635 21.1526 39.6553 21.1493 38.8365L21.101 27.0406C21.0976 26.2218 21.9819 25.7064 22.6927 26.1129L32.9324 31.969C33.6432 32.3755 33.6474 33.399 32.94 33.8113L22.7485 39.7512Z" fill="#F7F7F7"/>
<path d="M7.28189 33.4336C6.57278 33.0242 6.57278 32.0007 7.28189 31.5913L17.4976 25.6933C18.2067 25.2839 19.093 25.7956 19.093 26.6144V38.4105C19.093 39.2293 18.2067 39.741 17.4976 39.3316L7.28189 33.4336Z" fill="#F7F7F7"/>
<path d="M52.3236 34.4812C50.4727 34.4812 48.8192 34.2221 47.3632 33.7039C45.9071 33.1609 44.6732 32.3712 43.6614 31.3347C42.6495 30.2735 41.8722 28.9655 41.3292 27.4108C40.7863 25.856 40.5148 24.0791 40.5148 22.0801C40.5148 20.0071 40.7863 18.1686 41.3292 16.5644C41.8968 14.9603 42.6866 13.603 43.6984 12.4924C44.7102 11.3572 45.9195 10.5058 47.3262 9.93818C48.7329 9.37057 50.3 9.08676 52.0275 9.08676C53.3601 9.08676 54.5941 9.25951 55.7293 9.60501C56.8645 9.95052 57.8393 10.4688 58.6537 11.1598C59.4928 11.8261 60.1468 12.6405 60.6157 13.603C61.0846 14.5408 61.3314 15.6143 61.3561 16.8236L56.9879 17.9711C57.0126 16.8606 56.7781 15.9351 56.2846 15.1948C55.791 14.4544 55.1493 13.8991 54.3596 13.5289C53.5946 13.1588 52.7678 12.9737 51.8794 12.9737C51.0897 12.9737 50.3 13.1341 49.5102 13.4549C48.7452 13.7757 48.0542 14.2816 47.4372 14.9727C46.8203 15.6637 46.3267 16.5768 45.9565 17.712C45.5863 18.8225 45.4012 20.1922 45.4012 21.821C45.4012 23.894 45.6974 25.5722 46.2897 26.8555C46.9066 28.1388 47.7457 29.0889 48.8069 29.7059C49.8928 30.2982 51.1144 30.5943 52.4717 30.5943C53.8537 30.5943 54.9519 30.3229 55.7663 29.7799C56.5807 29.2123 57.173 28.472 57.5432 27.5588C57.9134 26.621 58.1231 25.6092 58.1725 24.5233L62.2815 25.2267C62.2568 26.51 62.0594 27.7192 61.6892 28.8545C61.319 29.9897 60.7391 30.9768 59.9494 31.8159C59.1843 32.655 58.1725 33.309 56.9139 33.7779C55.6553 34.2468 54.1252 34.4812 52.3236 34.4812ZM69.6762 34.4812C68.615 34.4812 67.6649 34.2838 66.8258 33.8889C65.9867 33.4694 65.3204 32.8524 64.8268 32.038C64.3579 31.2236 64.1235 30.2118 64.1235 29.0025C64.1235 27.9907 64.3085 27.127 64.6787 26.4113C65.0736 25.6956 65.6535 25.1156 66.4186 24.6714C67.1836 24.2025 68.1338 23.82 69.269 23.5239C70.4042 23.203 71.7369 22.9316 73.2669 22.7095C74.106 22.5861 74.7847 22.4627 75.3029 22.3393C75.8459 22.2159 76.2407 22.0308 76.4875 21.784C76.7343 21.5125 76.8577 21.1177 76.8577 20.5994C76.8577 19.8344 76.5862 19.1804 76.0433 18.6375C75.5251 18.0698 74.6736 17.786 73.4891 17.786C72.7734 17.786 72.0824 17.9094 71.416 18.1562C70.7744 18.403 70.2191 18.7979 69.7502 19.3408C69.2813 19.8591 68.9605 20.5501 68.7877 21.4138L64.6047 20.1182C64.8762 19.131 65.271 18.2796 65.7893 17.5639C66.3075 16.8236 66.9492 16.1943 67.7142 15.676C68.4793 15.1577 69.3554 14.7752 70.3425 14.5284C71.3297 14.2816 72.4155 14.1583 73.6001 14.1583C75.4017 14.1583 76.8824 14.4544 78.0423 15.0467C79.2022 15.6143 80.066 16.5151 80.6336 17.749C81.2012 18.9583 81.485 20.5254 81.485 22.4503V26.0781C81.485 26.9172 81.4973 27.7933 81.522 28.7064C81.5714 29.5948 81.6207 30.4956 81.6701 31.4087C81.7441 32.2972 81.8305 33.1609 81.9292 34H77.7461C77.6474 33.309 77.5611 32.5686 77.487 31.7789C77.413 30.9892 77.3513 30.1871 77.3019 29.3727H76.7096C76.3641 30.3105 75.8706 31.1743 75.2289 31.964C74.5873 32.729 73.7975 33.346 72.8597 33.8149C71.9466 34.2591 70.8854 34.4812 69.6762 34.4812ZM71.5271 31.0385C72.0207 31.0385 72.5142 30.9522 73.0078 30.7794C73.5261 30.6067 74.032 30.3475 74.5256 30.002C75.0191 29.6565 75.4757 29.237 75.8952 28.7434C76.3148 28.2252 76.6726 27.6205 76.9688 26.9295L76.8947 23.6349L77.7832 23.783C77.3636 24.1285 76.8454 24.4 76.2284 24.5974C75.6114 24.7948 74.9574 24.9429 74.2664 25.0416C73.6001 25.1403 72.9214 25.2637 72.2304 25.4118C71.5641 25.5352 70.9595 25.7079 70.4165 25.93C69.8736 26.1275 69.4417 26.4236 69.1209 26.8185C68.8001 27.1887 68.6397 27.7069 68.6397 28.3732C68.6397 29.2123 68.9111 29.8663 69.4541 30.3352C69.997 30.8041 70.688 31.0385 71.5271 31.0385ZM85.4893 34V21.747V14.6395H89.3022L89.1911 20.5624H89.8575C90.203 19.131 90.6472 17.9464 91.1901 17.0087C91.7577 16.0462 92.4487 15.3305 93.2631 14.8616C94.0775 14.3927 95.0153 14.1583 96.0765 14.1583C97.2611 14.1583 98.2359 14.4297 99.0009 14.9727C99.766 15.5156 100.346 16.2683 100.741 17.2308C101.16 18.1686 101.419 19.2668 101.518 20.5254H102.11C102.431 19.094 102.888 17.9094 103.48 16.9716C104.097 16.0338 104.837 15.3305 105.701 14.8616C106.59 14.3927 107.564 14.1583 108.626 14.1583C109.662 14.1583 110.575 14.368 111.365 14.7876C112.155 15.2071 112.809 15.8241 113.327 16.6385C113.87 17.4282 114.265 18.4277 114.512 19.6369C114.783 20.8462 114.919 22.2406 114.919 23.82V34H110.217V24.4123C110.217 23.0303 110.094 21.8827 109.847 20.9696C109.625 20.0565 109.267 19.3778 108.774 18.9336C108.305 18.4647 107.688 18.2303 106.923 18.2303C106.059 18.2303 105.306 18.5141 104.665 19.0817C104.023 19.6493 103.517 20.4513 103.147 21.4879C102.777 22.4997 102.555 23.6596 102.481 24.9676V34H97.8904V24.6344C97.8904 23.203 97.767 22.0184 97.5202 21.0807C97.2734 20.1182 96.9033 19.4025 96.4097 18.9336C95.9161 18.4647 95.2868 18.2303 94.5217 18.2303C93.6333 18.2303 92.8683 18.5264 92.2266 19.1187C91.6097 19.711 91.1161 20.5254 90.7459 21.5619C90.4004 22.5984 90.203 23.7583 90.1536 25.0416V34H85.4893ZM118.832 40.145V24.4493V14.6395H122.756L122.719 19.8961L123.348 19.9331C123.595 18.6991 123.99 17.6503 124.533 16.7865C125.1 15.9228 125.816 15.2688 126.68 14.8246C127.544 14.3804 128.568 14.1583 129.752 14.1583C131.48 14.1583 132.948 14.5901 134.158 15.4539C135.367 16.293 136.28 17.4899 136.897 19.0447C137.539 20.5747 137.859 22.364 137.859 24.4123C137.859 26.3372 137.563 28.0648 136.971 29.5948C136.403 31.1002 135.527 32.2972 134.343 33.1856C133.183 34.0494 131.739 34.4812 130.011 34.4812C128.753 34.4812 127.692 34.2344 126.828 33.7409C125.964 33.2473 125.261 32.5686 124.718 31.7049C124.175 30.8411 123.731 29.8416 123.385 28.7064H122.719C122.867 29.3727 122.99 30.0637 123.089 30.7794C123.212 31.4704 123.311 32.1614 123.385 32.8524C123.459 33.5188 123.496 34.1604 123.496 34.7774V40.145H118.832ZM128.494 30.6684C129.456 30.6684 130.271 30.4092 130.937 29.891C131.603 29.348 132.109 28.6077 132.455 27.6699C132.8 26.7074 132.973 25.6092 132.973 24.3753C132.973 23.092 132.788 21.9814 132.418 21.0436C132.072 20.1058 131.554 19.3778 130.863 18.8596C130.172 18.3413 129.358 18.0822 128.42 18.0822C127.605 18.0822 126.89 18.2673 126.273 18.6375C125.656 19.0076 125.137 19.5012 124.718 20.1182C124.298 20.7105 123.99 21.3521 123.792 22.0431C123.595 22.7341 123.496 23.4128 123.496 24.0791V24.7084C123.496 25.202 123.558 25.7203 123.681 26.2632C123.829 26.7815 124.039 27.312 124.311 27.855C124.582 28.3732 124.915 28.8545 125.31 29.2987C125.705 29.7182 126.174 30.0514 126.717 30.2982C127.26 30.545 127.852 30.6684 128.494 30.6684ZM147.481 34.4812C145.26 34.4812 143.581 33.7285 142.446 32.2231C141.336 30.693 140.78 28.3856 140.78 25.3007V14.6395H145.482V24.7825C145.482 26.7321 145.778 28.1881 146.37 29.1506C146.962 30.1131 147.875 30.5943 149.109 30.5943C149.825 30.5943 150.454 30.4216 150.997 30.0761C151.54 29.7059 152.009 29.2 152.404 28.5583C152.799 27.892 153.107 27.127 153.329 26.2632C153.576 25.3994 153.724 24.4493 153.774 23.4128V14.6395H158.438V26.0411V34H154.588L154.662 27.892H153.996C153.675 29.4468 153.218 30.7054 152.626 31.6679C152.059 32.6303 151.355 33.346 150.516 33.8149C149.677 34.2591 148.665 34.4812 147.481 34.4812ZM170.185 34.4812C168.877 34.4812 167.692 34.3455 166.631 34.074C165.595 33.8272 164.706 33.4694 163.966 33.0005C163.225 32.5069 162.633 31.927 162.189 31.2607C161.745 30.5696 161.473 29.8046 161.375 28.9655L165.039 27.5959C165.089 28.2375 165.336 28.8175 165.78 29.3357C166.224 29.8293 166.841 30.2241 167.631 30.5203C168.42 30.8164 169.37 30.9645 170.481 30.9645C171.715 30.9645 172.665 30.7794 173.331 30.4092C174.022 30.0144 174.368 29.4591 174.368 28.7434C174.368 28.2252 174.183 27.818 173.813 27.5218C173.442 27.201 172.9 26.9419 172.184 26.7444C171.493 26.5223 170.654 26.3126 169.667 26.1151C168.754 25.9177 167.828 25.6956 166.89 25.4488C165.977 25.1773 165.126 24.8318 164.336 24.4123C163.571 23.9681 162.942 23.4005 162.448 22.7095C161.979 21.9938 161.745 21.093 161.745 20.0071C161.745 18.8225 162.053 17.7984 162.67 16.9346C163.312 16.0709 164.225 15.3922 165.41 14.8986C166.619 14.405 168.075 14.1583 169.778 14.1583C171.382 14.1583 172.764 14.3804 173.924 14.8246C175.108 15.2688 176.071 15.9104 176.811 16.7495C177.552 17.5639 178.02 18.5387 178.218 19.674L174.368 20.8956C174.294 20.2046 174.059 19.6246 173.665 19.1557C173.27 18.6621 172.739 18.2919 172.073 18.0452C171.406 17.7984 170.629 17.675 169.741 17.675C168.605 17.675 167.717 17.8724 167.075 18.2673C166.434 18.6621 166.113 19.1927 166.113 19.8591C166.113 20.402 166.31 20.8339 166.705 21.1547C167.125 21.4755 167.692 21.7346 168.408 21.9321C169.148 22.1295 169.987 22.3269 170.925 22.5244C171.912 22.7218 172.863 22.9562 173.776 23.2277C174.713 23.4745 175.553 23.8077 176.293 24.2272C177.033 24.6467 177.626 25.202 178.07 25.893C178.514 26.5593 178.736 27.4231 178.736 28.4843C178.736 29.7676 178.391 30.8658 177.7 31.7789C177.009 32.6673 176.021 33.346 174.738 33.8149C173.48 34.2591 171.962 34.4812 170.185 34.4812Z" fill="#F7F7F7"/>
<path d="M131.582 48.7481C131.068 48.7481 130.626 48.6504 130.256 48.4551C129.886 48.2494 129.582 47.9615 129.346 47.5913C129.12 47.2211 128.955 46.779 128.852 46.2648H128.575L128.59 48.5476H126.955V44.5836V37.5964H128.898V40.2031C128.898 40.4499 128.883 40.7172 128.852 41.0052C128.821 41.2931 128.78 41.5913 128.729 41.8998C128.677 42.198 128.621 42.5013 128.559 42.8098H128.883C129.017 42.3162 129.192 41.8843 129.407 41.5142C129.634 41.1337 129.927 40.8355 130.287 40.6195C130.647 40.4036 131.089 40.2956 131.613 40.2956C132.282 40.2956 132.857 40.4756 133.341 40.8355C133.834 41.1851 134.215 41.6787 134.482 42.3162C134.749 42.9435 134.883 43.689 134.883 44.5527C134.883 45.3959 134.749 46.1311 134.482 46.7584C134.225 47.3856 133.85 47.8741 133.356 48.2237C132.873 48.5733 132.282 48.7481 131.582 48.7481ZM130.965 47.144C131.346 47.144 131.68 47.036 131.968 46.8201C132.256 46.6042 132.472 46.3008 132.616 45.9101C132.77 45.5193 132.847 45.0566 132.847 44.5219C132.847 44.0077 132.775 43.5553 132.631 43.1645C132.487 42.7738 132.276 42.4653 131.999 42.2391C131.721 42.0129 131.382 41.8998 130.981 41.8998C130.713 41.8998 130.467 41.9563 130.24 42.0694C130.014 42.1723 129.819 42.3162 129.654 42.5013C129.49 42.6761 129.351 42.8715 129.238 43.0874C129.125 43.3034 129.037 43.5296 128.976 43.7661C128.924 43.9923 128.898 44.2031 128.898 44.3985V44.6607C128.898 44.9178 128.94 45.1954 129.022 45.4936C129.104 45.7815 129.233 46.0489 129.407 46.2957C129.582 46.5425 129.798 46.7481 130.055 46.9126C130.312 47.0669 130.616 47.144 130.965 47.144ZM139.572 51.3085C139.161 51.3085 138.745 51.2674 138.323 51.1852C137.901 51.1029 137.506 50.9744 137.135 50.7995C136.775 50.635 136.472 50.4191 136.225 50.1517L136.889 48.5476C137.187 48.8869 137.572 49.144 138.045 49.3188C138.518 49.4936 138.997 49.581 139.48 49.581C140.045 49.581 140.513 49.4628 140.883 49.2263C141.254 49.0001 141.536 48.6453 141.732 48.162C141.927 47.6787 142.035 47.0772 142.056 46.3574L142.164 44.8921H141.84C141.737 45.5913 141.567 46.162 141.331 46.6042C141.094 47.036 140.796 47.3548 140.436 47.5605C140.087 47.7558 139.675 47.8535 139.202 47.8535C138.616 47.8535 138.123 47.7044 137.722 47.4062C137.32 47.108 137.017 46.6658 136.811 46.0797C136.616 45.4936 136.518 44.7687 136.518 43.9049V40.4807H138.477V43.4576C138.477 44.4242 138.596 45.1286 138.832 45.5707C139.069 46.0026 139.428 46.2185 139.912 46.2185C140.169 46.2185 140.405 46.1517 140.621 46.018C140.837 45.8741 141.017 45.6736 141.161 45.4165C141.315 45.1491 141.434 44.8201 141.516 44.4293C141.608 44.0386 141.66 43.5913 141.67 43.0874V40.4807H143.629V46.4345C143.629 47.0823 143.572 47.6684 143.459 48.1928C143.356 48.707 143.197 49.1543 142.981 49.5348C142.765 49.9255 142.493 50.2546 142.164 50.5219C141.845 50.7893 141.47 50.9846 141.038 51.108C140.606 51.2417 140.117 51.3085 139.572 51.3085ZM149.567 48.5476V38.3676H153.5C154.035 38.3676 154.523 38.4139 154.965 38.5064C155.418 38.5887 155.814 38.7121 156.153 38.8766C156.502 39.0411 156.796 39.2468 157.032 39.4936C157.269 39.7301 157.449 40.0077 157.572 40.3265C157.695 40.635 157.757 40.9794 157.757 41.3599C157.757 41.7198 157.7 42.0489 157.587 42.3471C157.474 42.635 157.305 42.8869 157.078 43.1028C156.862 43.3188 156.585 43.4987 156.245 43.6427C155.916 43.7764 155.531 43.8741 155.089 43.9358V44.1363C155.562 44.198 155.947 44.3162 156.245 44.491C156.554 44.6658 156.801 44.9075 156.986 45.216C157.171 45.5245 157.33 45.9203 157.464 46.4036L158.081 48.5476H155.937L155.459 46.5733C155.366 46.162 155.222 45.8329 155.027 45.5862C154.842 45.3394 154.605 45.1646 154.317 45.0617C154.029 44.9589 153.68 44.9075 153.269 44.9075H151.51V48.5476H149.567ZM151.51 43.4113H153.361C154.132 43.4113 154.718 43.2674 155.119 42.9795C155.531 42.6915 155.736 42.2494 155.736 41.653C155.736 41.0566 155.541 40.6144 155.15 40.3265C154.77 40.0386 154.184 39.8946 153.392 39.8946H151.51V43.4113ZM159.777 48.5476V40.4807H161.72V48.5476H159.777ZM160.748 39.2159C160.358 39.2159 160.054 39.1337 159.838 38.9692C159.633 38.7943 159.53 38.5476 159.53 38.2288C159.53 37.91 159.633 37.6684 159.838 37.5038C160.054 37.329 160.358 37.2416 160.748 37.2416C161.16 37.2416 161.468 37.3239 161.674 37.4884C161.88 37.653 161.982 37.8997 161.982 38.2288C161.982 38.5476 161.874 38.7943 161.658 38.9692C161.453 39.1337 161.149 39.2159 160.748 39.2159ZM167.035 48.7481C166.49 48.7481 165.996 48.6916 165.554 48.5785C165.122 48.4756 164.752 48.3265 164.444 48.1312C164.135 47.9255 163.888 47.6838 163.703 47.4062C163.518 47.1183 163.405 46.7995 163.364 46.4499L164.891 45.8792C164.912 46.1466 165.014 46.3882 165.2 46.6042C165.385 46.8098 165.642 46.9743 165.971 47.0977C166.3 47.2211 166.696 47.2828 167.158 47.2828C167.673 47.2828 168.068 47.2057 168.346 47.0515C168.634 46.8869 168.778 46.6556 168.778 46.3574C168.778 46.1414 168.701 45.9718 168.547 45.8484C168.392 45.7147 168.166 45.6067 167.868 45.5245C167.58 45.4319 167.23 45.3445 166.819 45.2622C166.439 45.18 166.053 45.0874 165.662 44.9846C165.282 44.8715 164.927 44.7275 164.598 44.5527C164.279 44.3676 164.017 44.1311 163.811 43.8432C163.616 43.545 163.518 43.1697 163.518 42.7172C163.518 42.2237 163.647 41.7969 163.904 41.437C164.171 41.0771 164.552 40.7944 165.045 40.5887C165.549 40.383 166.156 40.2802 166.865 40.2802C167.534 40.2802 168.11 40.3728 168.593 40.5578C169.086 40.7429 169.487 41.0103 169.796 41.3599C170.104 41.6992 170.3 42.1054 170.382 42.5784L168.778 43.0874C168.747 42.7995 168.649 42.5579 168.485 42.3625C168.32 42.1568 168.099 42.0026 167.822 41.8998C167.544 41.7969 167.22 41.7455 166.85 41.7455C166.377 41.7455 166.007 41.8278 165.739 41.9923C165.472 42.1568 165.338 42.3779 165.338 42.6555C165.338 42.8818 165.421 43.0617 165.585 43.1954C165.76 43.3291 165.996 43.437 166.295 43.5193C166.603 43.6016 166.953 43.6838 167.344 43.7661C167.755 43.8484 168.151 43.946 168.531 44.0592C168.922 44.162 169.272 44.3008 169.58 44.4756C169.889 44.6504 170.135 44.8818 170.32 45.1697C170.505 45.4473 170.598 45.8072 170.598 46.2494C170.598 46.7841 170.454 47.2417 170.166 47.6222C169.878 47.9923 169.467 48.2751 168.932 48.4705C168.408 48.6556 167.775 48.7481 167.035 48.7481ZM175.919 48.7481C175.271 48.7481 174.69 48.6556 174.176 48.4705C173.672 48.2854 173.245 48.018 172.896 47.6684C172.546 47.3085 172.279 46.8766 172.094 46.3728C171.909 45.8689 171.816 45.2982 171.816 44.6607C171.816 44.0232 171.903 43.437 172.078 42.9023C172.263 42.3676 172.526 41.9049 172.865 41.5142C173.204 41.1234 173.616 40.8201 174.099 40.6041C174.592 40.3882 175.153 40.2802 175.78 40.2802C176.366 40.2802 176.891 40.3779 177.353 40.5733C177.816 40.7686 178.207 41.0617 178.526 41.4525C178.844 41.8329 179.081 42.3111 179.235 42.8869C179.389 43.4525 179.441 44.1106 179.389 44.8612L173.081 44.9075V43.7815L178.263 43.7352L177.585 44.3676C177.646 43.7815 177.6 43.3034 177.446 42.9332C177.292 42.5527 177.071 42.2751 176.783 42.1003C176.495 41.9152 176.166 41.8226 175.796 41.8226C175.374 41.8226 175.004 41.9357 174.685 42.162C174.366 42.3779 174.119 42.6967 173.945 43.1183C173.78 43.5296 173.698 44.0334 173.698 44.6298C173.698 45.5245 173.893 46.1928 174.284 46.635C174.685 47.0772 175.23 47.2982 175.919 47.2982C176.227 47.2982 176.484 47.2623 176.69 47.1903C176.906 47.108 177.086 47.0052 177.23 46.8818C177.374 46.7481 177.487 46.599 177.569 46.4345C177.662 46.27 177.734 46.0952 177.785 45.9101L179.482 46.2957C179.4 46.6761 179.266 47.0155 179.081 47.3137C178.896 47.6119 178.654 47.8689 178.356 48.0849C178.068 48.3008 177.724 48.4653 177.323 48.5785C176.921 48.6916 176.454 48.7481 175.919 48.7481Z" fill="#F7F7F7"/>
</svg>
